<svg id="Layer_1" data-name="Layer 1" xmlns="http://www.w3.org/2000/svg" viewBox="0 0 119.06 31.18"><defs><style>.cls-1{fill:#ed1c24;}.cls-2{fill:#fff;}</style></defs><circle class="cls-1" cx="72.08" cy="5.41" r="3.4"/><path class="cls-2" d="M41,4.62A11.84,11.84,0,1,0,52.86,16.46,11.84,11.84,0,0,0,41,4.62ZM41,21.7a5.25,5.25,0,1,1,5.24-5.24A5.24,5.24,0,0,1,41,21.7Z"/><polygon class="cls-2" points="79.73 6.35 90.83 6.35 85.28 20.09 79.73 6.35"/><path class="cls-2" d="M102.71,6.29a11.66,11.66,0,0,0-5.55,1.4L91.39,21A11.72,11.72,0,1,0,102.71,6.29Zm0,16.83A5.12,5.12,0,1,1,107.83,18,5.12,5.12,0,0,1,102.71,23.12Z"/><path class="cls-2" d="M65.91,6.29H49.84a13.78,13.78,0,0,1,4.38,6.37H65.91Z"/><path class="cls-2" d="M55.93,2.76h0a6.37,6.37,0,0,1,6.37,6.37V20.3a0,0,0,0,1,0,0H55.93a0,0,0,0,1,0,0V2.76A0,0,0,0,1,55.93,2.76Z"/><path class="cls-2" d="M62,11.13a9.64,9.64,0,1,0,13.23,9H68.85a3.28,3.28,0,0,1-6.55-.06Z"/><path class="cls-2" d="M68.84,9.07V20.3h6.38V9.24a4.46,4.46,0,0,1-6.38-.17Z"/><polygon class="cls-2" points="16.05 23.13 13.54 15.19 20.23 5.5 28.02 5.54 16.05 23.13"/><path class="cls-2" d="M28,28.81h0l0-23.31H21.55l0,16.94A6.38,6.38,0,0,0,28,28.81Z"/><polygon class="cls-2" points="15.98 23.13 18.49 15.19 11.8 5.5 4.02 5.54 15.98 23.13"/><path class="cls-2" d="M4.07,28.81h0l0-23.31h6.37l0,16.94A6.38,6.38,0,0,1,4.07,28.81Z"/><path class="cls-2" d="M112.68,2.62a1.57,1.57,0,0,1,1.15.46,1.52,1.52,0,0,1,.46,1.12,1.49,1.49,0,0,1-.46,1.12,1.68,1.68,0,0,1-2.31,0,1.49,1.49,0,0,1-.47-1.12,1.53,1.53,0,0,1,.47-1.12,1.6,1.6,0,0,1,1.15-.46Zm0,.32a1.15,1.15,0,0,0-.87.36,1.25,1.25,0,0,0-.35.9,1.25,1.25,0,0,0,.35.89,1.2,1.2,0,0,0,.88.37,1.16,1.16,0,0,0,.87-.37,1.24,1.24,0,0,0,.34-.89,1.25,1.25,0,0,0-.35-.9,1.15,1.15,0,0,0-.87-.36ZM112.42,5h-.36V3.45a2.93,2.93,0,0,1,.61-.06,1,1,0,0,1,.54.12.39.39,0,0,1,.16.34c0,.19-.11.31-.33.37v0a.48.48,0,0,1,.29.39,1,1,0,0,0,.12.38h-.4a1.12,1.12,0,0,1-.12-.37.29.29,0,0,0-.33-.25h-.18Zm0-.88h.18c.24,0,.36-.08.36-.23s-.11-.24-.33-.24a.65.65,0,0,0-.21,0Z"/></svg>