<svg id="Layer_1" data-name="Layer 1" xmlns="http://www.w3.org/2000/svg" viewBox="0 0 131.46 131.46"><defs><style>.cls-1{fill:#212120;}.cls-2{fill:#fff;}.cls-3{fill:#ed1c24;}</style></defs><path class="cls-1" d="M98.69,122.57s0-.06-.07-.09v.09Z" transform="translate(-5.13 -5.13)"/><rect width="131.46" height="131.46" rx="65.73"/><path class="cls-2" d="M72.46,60.27,69.23,65,60.6,52.44H44.82v.09h-.18l.18.26-.07,47.43A13.09,13.09,0,0,0,57.83,87.16l0-15.2L69.16,88.59l.07-.23.07.23L80.61,72l0,15.2a13.09,13.09,0,0,0,13.08,13.06l0-35.11a14.41,14.41,0,0,1-21.2-4.84Z" transform="translate(-5.13 -5.13)"/><circle class="cls-3" cx="80.05" cy="48.28" r="11.9"/></svg>