<svg id="Layer_1" data-name="Layer 1" xmlns="http://www.w3.org/2000/svg" viewBox="0 0 119.06 31.18"><defs><style>.cls-1{fill:#ed1c24;}</style></defs><path d="M41.34,3.49A12.35,12.35,0,1,0,53.69,15.83,12.34,12.34,0,0,0,41.34,3.49Zm0,17.81a5.47,5.47,0,1,1,5.47-5.47A5.47,5.47,0,0,1,41.34,21.3Z"/><polygon points="81.71 5.29 93.28 5.29 87.5 19.62 81.71 5.29"/><path d="M105.67,5.23a12.16,12.16,0,0,0-5.79,1.46l-6,13.9a12.22,12.22,0,1,0,11.8-15.36Zm0,17.55A5.34,5.34,0,1,1,111,17.45,5.34,5.34,0,0,1,105.67,22.78Z"/><path d="M67.3,5.23H50.53a14.31,14.31,0,0,1,4.57,6.65H67.3Z"/><path d="M56.89,1.54h0a6.65,6.65,0,0,1,6.65,6.65V19.84a0,0,0,0,1,0,0H56.89a0,0,0,0,1,0,0V1.54A0,0,0,0,1,56.89,1.54Z"/><path d="M63.2,10.27A10.06,10.06,0,1,0,77,19.67H70.35a3.41,3.41,0,0,1-6.82-.06Z"/><path d="M70.35,8.13V19.84H77V8.3a4.76,4.76,0,0,1-3.24,1.32A4.82,4.82,0,0,1,70.35,8.13Z"/><circle class="cls-1" cx="73.72" cy="4.32" r="3.55"/><polygon points="15.3 22.8 12.68 14.51 19.66 4.4 27.77 4.45 15.3 22.8"/><path d="M27.72,28.71h0l0-24.31H21l0,17.67A6.66,6.66,0,0,0,27.72,28.71Z"/><polygon points="15.23 22.8 17.84 14.51 10.87 4.4 2.75 4.45 15.23 22.8"/><path d="M2.8,28.71h0l0-24.31H9.49l0,17.67A6.65,6.65,0,0,1,2.8,28.71Z"/></svg>